<svg width="617" height="114" viewBox="0 0 617 114" fill="none" xmlns="http://www.w3.org/2000/svg">
    <g clip-path="url(#clip0_1_30)">
        <path d="M58.7 18.5V34.1H39.9V89H20.3V34.1H1.7V18.5H58.7ZM121.852 68.4C121.852 72.2 120.818 75.7 118.752 78.9C116.752 82.0333 113.785 84.5667 109.852 86.5C105.985 88.4333 101.318 89.5 95.8516 89.7V97.7H89.5516V89.5C82.2182 88.8333 76.2182 86.6 71.5516 82.8C66.9516 79 64.5182 73.8333 64.2516 67.3H85.1516C85.4182 70.7 86.8849 72.9333 89.5516 74V61.2C83.9516 59.6667 79.5516 58.2667 76.3516 57C73.1516 55.6667 70.2849 53.5333 67.7516 50.6C65.2849 47.6667 64.0516 43.6667 64.0516 38.6C64.0516 34.4 65.1516 30.7667 67.3516 27.7C69.6182 24.5667 72.6849 22.1667 76.5516 20.5C80.4182 18.7667 84.7516 17.7667 89.5516 17.5V9.39999H95.8516V17.5C103.252 18.0333 109.118 20.1667 113.452 23.9C117.852 27.6333 120.285 32.7667 120.752 39.3H99.6516C99.3849 36.2333 98.1182 34.2 95.8516 33.2V45.9L98.3516 46.7C103.152 48.0333 107.118 49.4333 110.252 50.9C113.452 52.3 116.185 54.4333 118.452 57.3C120.718 60.1 121.852 63.8 121.852 68.4ZM84.9516 37.7C84.9516 40.1 86.4849 42.0667 89.5516 43.6V32.6C86.4849 33.1333 84.9516 34.8333 84.9516 37.7ZM95.8516 74.5C97.4516 74.1667 98.7182 73.5333 99.6516 72.6C100.585 71.6 101.052 70.3667 101.052 68.9C101.052 66.5667 99.3182 64.6667 95.8516 63.2V74.5ZM151.665 42.8C153.865 39.6 156.532 37.0667 159.665 35.2C162.798 33.3333 166.165 32.4 169.765 32.4V53.3H164.265C159.998 53.3 156.832 54.1333 154.765 55.8C152.698 57.4667 151.665 60.3667 151.665 64.5V89H132.065V32.9H151.665V42.8ZM250.091 32.4C257.158 32.4 262.691 34.5333 266.691 38.8C270.758 43.0667 272.791 48.9 272.791 56.3V89H253.191V58.9C253.191 55.9 252.358 53.5667 250.691 51.9C249.025 50.2333 246.758 49.4 243.891 49.4C241.025 49.4 238.758 50.2333 237.091 51.9C235.425 53.5667 234.591 55.9 234.591 58.9V89H214.991V58.9C214.991 55.9 214.158 53.5667 212.491 51.9C210.891 50.2333 208.658 49.4 205.791 49.4C202.858 49.4 200.558 50.2333 198.891 51.9C197.225 53.5667 196.391 55.9 196.391 58.9V89H176.791V32.9H196.391V40.3C198.125 37.9 200.358 36 203.091 34.6C205.891 33.1333 209.091 32.4 212.691 32.4C216.825 32.4 220.491 33.3 223.691 35.1C226.958 36.9 229.525 39.4333 231.391 42.7C233.391 39.6333 236.025 37.1667 239.291 35.3C242.558 33.3667 246.158 32.4 250.091 32.4ZM279.73 34.3V15.9H310.53V89H290.03V34.3H279.73ZM358.902 32.4C365.368 32.4 370.502 34.5667 374.302 38.9C378.102 43.1667 380.002 48.9667 380.002 56.3V89H360.402V58.9C360.402 55.7 359.568 53.2 357.902 51.4C356.235 49.5333 354.002 48.6 351.202 48.6C348.268 48.6 345.968 49.5333 344.302 51.4C342.635 53.2 341.802 55.7 341.802 58.9V89H322.202V32.9H341.802V40.9C343.535 38.3667 345.868 36.3333 348.802 34.8C351.735 33.2 355.102 32.4 358.902 32.4Z"
              fill="white"/>
        <g filter="url(#filter0_f_1_30)">
            <path d="M406.881 89.9233C403.401 89.9233 400.311 89.3433 397.612 88.1832C394.937 86.9995 392.818 85.224 391.256 82.8565C389.717 80.4654 388.947 77.4706 388.947 73.8722C388.947 70.8419 389.48 68.285 390.545 66.2017C391.611 64.1184 393.079 62.4257 394.949 61.1236C396.819 59.8215 398.973 58.839 401.412 58.1761C403.85 57.4896 406.455 57.0279 409.224 56.7912C412.326 56.5071 414.823 56.2112 416.717 55.9034C418.611 55.572 419.984 55.1103 420.837 54.5185C421.713 53.9029 422.151 53.0388 422.151 51.9261V51.7486C422.151 49.9257 421.523 48.517 420.268 47.5227C419.014 46.5284 417.321 46.0312 415.19 46.0312C412.894 46.0312 411.047 46.5284 409.651 47.5227C408.254 48.517 407.366 49.8902 406.987 51.642L390.972 51.0739C391.445 47.7595 392.664 44.8002 394.629 42.196C396.618 39.5682 399.34 37.5085 402.797 36.017C406.277 34.5019 410.455 33.7443 415.332 33.7443C418.813 33.7443 422.02 34.1586 424.956 34.9872C427.892 35.7921 430.448 36.9759 432.626 38.5384C434.804 40.0772 436.485 41.9711 437.669 44.2202C438.876 46.4692 439.48 49.0379 439.48 51.9261V89H423.145V81.4006H422.719C421.748 83.2472 420.505 84.8097 418.99 86.0881C417.499 87.3665 415.735 88.3253 413.699 88.9645C411.687 89.6037 409.414 89.9233 406.881 89.9233ZM412.243 78.5597C414.113 78.5597 415.794 78.1809 417.286 77.4233C418.801 76.6657 420.008 75.6241 420.908 74.2983C421.807 72.9489 422.257 71.3864 422.257 69.6108V64.4261C421.76 64.6866 421.156 64.9233 420.446 65.1364C419.759 65.3494 419.002 65.5507 418.173 65.7401C417.345 65.9295 416.492 66.0952 415.616 66.2372C414.741 66.3793 413.9 66.5095 413.095 66.6278C411.462 66.8883 410.065 67.2907 408.905 67.8352C407.768 68.3797 406.893 69.09 406.277 69.9659C405.685 70.8182 405.389 71.8362 405.389 73.0199C405.389 74.8191 406.028 76.1922 407.307 77.1392C408.609 78.0862 410.254 78.5597 412.243 78.5597Z"
                  fill="white"/>
            <path d="M386 56.2585H444.558V63.0767H386V56.2585Z" fill="white"/>
        </g>
        <path d="M447.4 63.9C447.4 58.1 448.433 53.0333 450.5 48.7C452.633 44.3667 455.5 41.0333 459.1 38.7C462.767 36.3667 466.833 35.2 471.3 35.2C475.167 35.2 478.5 35.9667 481.3 37.5C484.1 39.0333 486.267 41.1 487.8 43.7V35.9H507.4V92H487.8V84.2C486.267 86.8 484.067 88.8667 481.2 90.4C478.4 91.9333 475.1 92.7 471.3 92.7C466.833 92.7 462.767 91.5333 459.1 89.2C455.5 86.8667 452.633 83.5333 450.5 79.2C448.433 74.8 447.4 69.7 447.4 63.9ZM487.8 63.9C487.8 60.3 486.8 57.4667 484.8 55.4C482.867 53.3333 480.467 52.3 477.6 52.3C474.667 52.3 472.233 53.3333 470.3 55.4C468.367 57.4 467.4 60.2333 467.4 63.9C467.4 67.5 468.367 70.3667 470.3 72.5C472.233 74.5667 474.667 75.6 477.6 75.6C480.467 75.6 482.867 74.5667 484.8 72.5C486.8 70.4333 487.8 67.5667 487.8 63.9ZM551.669 75.3V92H543.169C528.835 92 521.669 84.9 521.669 70.7V52.2H514.769V35.9H521.669V22.3H541.369V35.9H551.569V52.2H541.369V71C541.369 72.5333 541.702 73.6333 542.369 74.3C543.102 74.9667 544.302 75.3 545.969 75.3H551.669ZM614.259 63.3C614.259 64.8333 614.159 66.3667 613.959 67.9H576.859C577.059 70.9667 577.892 73.2667 579.359 74.8C580.892 76.2667 582.825 77 585.159 77C588.425 77 590.759 75.5333 592.159 72.6H613.059C612.192 76.4667 610.492 79.9333 607.959 83C605.492 86 602.359 88.3667 598.559 90.1C594.759 91.8333 590.559 92.7 585.959 92.7C580.425 92.7 575.492 91.5333 571.159 89.2C566.892 86.8667 563.525 83.5333 561.059 79.2C558.659 74.8667 557.459 69.7667 557.459 63.9C557.459 58.0333 558.659 52.9667 561.059 48.7C563.459 44.3667 566.792 41.0333 571.059 38.7C575.392 36.3667 580.359 35.2 585.959 35.2C591.492 35.2 596.392 36.3333 600.659 38.6C604.925 40.8667 608.259 44.1333 610.659 48.4C613.059 52.6 614.259 57.5667 614.259 63.3ZM594.259 58.4C594.259 56 593.459 54.1333 591.859 52.8C590.259 51.4 588.259 50.7 585.859 50.7C583.459 50.7 581.492 51.3667 579.959 52.7C578.425 53.9667 577.425 55.8667 576.959 58.4H594.259Z"
              fill="white"/>
    </g>
    <defs>
        <filter id="filter0_f_1_30" x="378.947" y="23.7443" width="70.5327" height="76.1791"
                filterUnits="userSpaceOnUse" color-interpolation-filters="sRGB">
            <feFlood flood-opacity="0" result="BackgroundImageFix"/>
            <feBlend mode="normal" in="SourceGraphic" in2="BackgroundImageFix" result="shape"/>
            <feGaussianBlur stdDeviation="5" result="effect1_foregroundBlur_1_30"/>
        </filter>
        <clipPath id="clip0_1_30">
            <rect width="617" height="114" fill="white"/>
        </clipPath>
    </defs>
</svg>