<svg width="37" height="27" viewBox="0 0 37 27" fill="none" xmlns="http://www.w3.org/2000/svg">
<path d="M17.61 2.85V7.53H11.97V24H6.09V7.53H0.51V2.85H17.61ZM36.5555 17.82C36.5555 18.96 36.2455 20.01 35.6255 20.97C35.0255 21.91 34.1355 22.67 32.9555 23.25C31.7955 23.83 30.3955 24.15 28.7555 24.21V26.61H26.8655V24.15C24.6655 23.95 22.8655 23.28 21.4655 22.14C20.0855 21 19.3555 19.45 19.2755 17.49H25.5455C25.6255 18.51 26.0655 19.18 26.8655 19.5V15.66C25.1855 15.2 23.8655 14.78 22.9055 14.4C21.9455 14 21.0855 13.36 20.3255 12.48C19.5855 11.6 19.2155 10.4 19.2155 8.88C19.2155 7.62 19.5455 6.53 20.2055 5.61C20.8855 4.67 21.8055 3.95 22.9655 3.45C24.1255 2.93 25.4255 2.63 26.8655 2.55V0.119998H28.7555V2.55C30.9755 2.71 32.7355 3.35 34.0355 4.47C35.3555 5.59 36.0855 7.13 36.2255 9.09H29.8955C29.8155 8.17 29.4355 7.56 28.7555 7.26V11.07L29.5055 11.31C30.9455 11.71 32.1355 12.13 33.0755 12.57C34.0355 12.99 34.8555 13.63 35.5355 14.49C36.2155 15.33 36.5555 16.44 36.5555 17.82ZM25.4855 8.61C25.4855 9.33 25.9455 9.92 26.8655 10.38V7.08C25.9455 7.24 25.4855 7.75 25.4855 8.61ZM28.7555 19.65C29.2355 19.55 29.6155 19.36 29.8955 19.08C30.1755 18.78 30.3155 18.41 30.3155 17.97C30.3155 17.27 29.7955 16.7 28.7555 16.26V19.65Z" fill="white"/>
</svg>
