<?xml version="1.0" encoding="UTF-8"?>
<svg xmlns="http://www.w3.org/2000/svg" viewBox="0 0 32 32" width="32px" height="32px">
    <g id="surface57375866">
        <path style=" stroke:none;fill-rule:nonzero;fill:rgb(100%,100%,100%);fill-opacity:1;"
              d="M 16 3.199219 C 8.929688 3.199219 3.199219 8.929688 3.199219 16 C 3.199219 21.996094 7.332031 27.015625 12.898438 28.40625 C 12.839844 28.234375 12.800781 28.03125 12.800781 27.785156 L 12.800781 25.597656 C 12.28125 25.597656 11.410156 25.597656 11.191406 25.597656 C 10.316406 25.597656 9.535156 25.21875 9.160156 24.519531 C 8.742188 23.742188 8.667969 22.550781 7.628906 21.824219 C 7.320312 21.582031 7.554688 21.308594 7.910156 21.34375 C 8.566406 21.53125 9.109375 21.980469 9.621094 22.648438 C 10.132812 23.316406 10.371094 23.46875 11.324219 23.46875 C 11.785156 23.46875 12.476562 23.441406 13.128906 23.339844 C 13.476562 22.449219 14.082031 21.632812 14.824219 21.246094 C 10.558594 20.808594 8.527344 18.6875 8.527344 15.808594 C 8.527344 14.570312 9.054688 13.371094 9.949219 12.359375 C 9.65625 11.355469 9.285156 9.3125 10.0625 8.535156 C 11.980469 8.535156 13.140625 9.777344 13.417969 10.113281 C 14.375 9.785156 15.425781 9.601562 16.527344 9.601562 C 17.632812 9.601562 18.6875 9.785156 19.644531 10.113281 C 19.921875 9.78125 21.082031 8.535156 23.003906 8.535156 C 23.785156 9.3125 23.410156 11.367188 23.113281 12.367188 C 24.003906 13.375 24.527344 14.570312 24.527344 15.808594 C 24.527344 18.683594 22.496094 20.804688 18.242188 21.246094 C 19.414062 21.855469 20.265625 23.574219 20.265625 24.867188 L 20.265625 27.785156 C 20.265625 27.894531 20.242188 27.972656 20.230469 28.070312 C 25.21875 26.320312 28.800781 21.585938 28.800781 16 C 28.800781 8.929688 23.070312 3.199219 16 3.199219 Z M 16 3.199219 "/>
    </g>
</svg>
