<?xml version="1.0" encoding="UTF-8"?>
<svg xmlns="http://www.w3.org/2000/svg" xmlns:xlink="http://www.w3.org/1999/xlink" viewBox="0 0 24 24" width="24px" height="24px">
<g id="surface59431508">
<path style=" stroke:none;fill-rule:nonzero;fill:rgb(100%,100%,100%);fill-opacity:1;" d="M 21.730469 1.117188 C 21.640625 1.015625 21.511719 0.960938 21.375 0.960938 L 2.625 0.960938 C 2.488281 0.960938 2.359375 1.015625 2.269531 1.117188 C 2.175781 1.214844 2.132812 1.347656 2.144531 1.484375 L 3.835938 20.40625 C 3.851562 20.605469 3.988281 20.769531 4.179688 20.828125 L 11.867188 23.019531 C 11.90625 23.035156 11.953125 23.039062 12 23.039062 C 12.042969 23.039062 12.085938 23.035156 12.128906 23.019531 L 19.820312 20.828125 C 20.011719 20.769531 20.148438 20.605469 20.167969 20.40625 L 21.855469 1.484375 C 21.867188 1.347656 21.824219 1.214844 21.730469 1.117188 Z M 17.6875 7.640625 L 8.65625 7.640625 L 8.871094 10.082031 L 17.46875 10.082031 L 16.824219 17.304688 L 11.996094 18.761719 L 11.949219 18.75 L 7.175781 17.300781 L 6.917969 14.359375 L 9.253906 14.359375 L 9.355469 15.503906 L 12.023438 16.0625 L 14.644531 15.503906 L 14.921875 12.414062 L 6.742188 12.414062 L 6.105469 5.304688 L 17.894531 5.304688 Z M 17.6875 7.640625 "/>
</g>
</svg>
