<?xml version="1.0" encoding="UTF-8"?>
<svg xmlns="http://www.w3.org/2000/svg" viewBox="0 0 24 24" width="24px" height="24px">
    <g id="surface59395534">
        <path style=" stroke:none;fill-rule:nonzero;fill:rgb(100%,100%,100%);fill-opacity:1;"
              d="M 20.800781 1.921875 L 3.199219 1.921875 C 2.492188 1.921875 1.921875 2.492188 1.921875 3.199219 L 1.921875 20.800781 C 1.921875 21.507812 2.492188 22.078125 3.199219 22.078125 L 20.800781 22.078125 C 21.507812 22.078125 22.078125 21.507812 22.078125 20.800781 L 22.078125 3.199219 C 22.078125 2.492188 21.507812 1.921875 20.800781 1.921875 Z M 12.960938 17.367188 C 12.960938 19.285156 11.835938 20.160156 10.191406 20.160156 C 8.707031 20.160156 7.636719 19.164062 7.199219 18.238281 L 8.710938 17.328125 C 9 17.84375 9.441406 18.238281 10.078125 18.238281 C 10.6875 18.238281 11.039062 18 11.039062 17.074219 L 11.039062 11.039062 L 12.960938 11.039062 Z M 17.125 20.160156 C 15.421875 20.160156 14.457031 19.304688 13.921875 18.238281 L 15.359375 17.28125 C 15.75 17.921875 16.179688 18.535156 17.082031 18.535156 C 17.84375 18.535156 18.238281 18.15625 18.238281 17.628906 C 18.238281 17.003906 17.828125 16.78125 16.992188 16.414062 L 16.535156 16.21875 C 15.214844 15.65625 14.335938 14.953125 14.335938 13.457031 C 14.335938 12.085938 15.382812 11.039062 17.015625 11.039062 C 18.183594 11.039062 19.019531 11.445312 19.621094 12.507812 L 18.195312 13.421875 C 17.882812 12.859375 17.542969 12.636719 17.015625 12.636719 C 16.480469 12.636719 16.140625 12.980469 16.140625 13.421875 C 16.140625 13.972656 16.480469 14.195312 17.265625 14.535156 L 17.722656 14.730469 C 19.28125 15.398438 20.160156 16.078125 20.160156 17.609375 C 20.160156 19.257812 18.863281 20.160156 17.125 20.160156 Z M 17.125 20.160156 "/>
    </g>
</svg>
