<?xml version="1.0" encoding="UTF-8"?>
<svg xmlns="http://www.w3.org/2000/svg" xmlns:xlink="http://www.w3.org/1999/xlink" viewBox="0 0 24 24" width="24px" height="24px">
<g id="surface59151130">
<path style=" stroke:none;fill-rule:nonzero;fill:rgb(100%,100%,100%);fill-opacity:1;" d="M 11.761719 0.960938 C 7.585938 0.960938 6.71875 3.117188 6.71875 4.363281 L 6.71875 6.71875 L 11.519531 6.71875 L 11.519531 7.199219 L 4.363281 7.199219 C 2.78125 7.199219 0.960938 8.449219 0.960938 12 C 0.960938 15.550781 2.78125 16.800781 4.363281 16.800781 L 7.199219 16.800781 L 7.199219 13.921875 C 7.199219 12.863281 8.0625 12 9.121094 12 L 14.878906 12 C 15.695312 12 16.320312 11.375 16.320312 10.558594 L 16.320312 4.363281 C 16.320312 2.683594 14.734375 0.960938 11.761719 0.960938 Z M 9.601562 3.359375 C 10.128906 3.359375 10.558594 3.792969 10.558594 4.320312 C 10.558594 4.847656 10.128906 5.28125 9.601562 5.28125 C 9.070312 5.28125 8.640625 4.847656 8.640625 4.320312 C 8.640625 3.792969 9.070312 3.359375 9.601562 3.359375 Z M 16.800781 7.199219 L 16.800781 10.558594 C 16.800781 11.617188 15.9375 12.480469 14.878906 12.480469 L 9.121094 12.480469 C 8.304688 12.480469 7.679688 13.105469 7.679688 13.921875 L 7.679688 19.636719 C 7.679688 21.316406 9.265625 23.039062 12.238281 23.039062 C 16.414062 23.039062 17.28125 20.882812 17.28125 19.636719 L 17.28125 17.28125 L 12.480469 17.28125 L 12.480469 16.800781 L 19.636719 16.800781 C 21.21875 16.800781 23.039062 15.550781 23.039062 12 C 23.039062 8.449219 21.21875 7.199219 19.636719 7.199219 Z M 14.398438 18.71875 C 14.929688 18.71875 15.359375 19.152344 15.359375 19.679688 C 15.359375 20.207031 14.929688 20.640625 14.398438 20.640625 C 13.871094 20.640625 13.441406 20.207031 13.441406 19.679688 C 13.441406 19.152344 13.871094 18.71875 14.398438 18.71875 Z M 14.398438 18.71875 "/>
</g>
</svg>
