<?xml version="1.0" encoding="UTF-8"?>
<svg xmlns="http://www.w3.org/2000/svg" xmlns:xlink="http://www.w3.org/1999/xlink" viewBox="0 0 24 24" width="24px" height="24px">
<g id="surface59432519">
<path style=" stroke:none;fill-rule:nonzero;fill:rgb(100%,100%,100%);fill-opacity:1;" d="M 21.601562 1.921875 L 2.398438 1.921875 C 2.132812 1.921875 1.921875 2.136719 1.921875 2.398438 L 1.921875 21.601562 C 1.921875 21.863281 2.132812 22.078125 2.398438 22.078125 L 21.601562 22.078125 C 21.867188 22.078125 22.078125 21.863281 22.078125 21.601562 L 22.078125 2.398438 C 22.078125 2.136719 21.867188 1.921875 21.601562 1.921875 Z M 13.921875 12.695312 L 11.519531 12.695312 L 11.519531 20.160156 L 9.601562 20.160156 L 9.601562 12.695312 L 7.199219 12.695312 L 7.199219 11.039062 L 13.921875 11.039062 Z M 14.457031 19.734375 L 14.457031 17.738281 C 14.457031 17.738281 15.546875 18.558594 16.855469 18.558594 C 18.164062 18.558594 18.113281 17.703125 18.113281 17.585938 C 18.113281 16.347656 14.40625 16.347656 14.40625 13.597656 C 14.40625 9.855469 19.808594 11.332031 19.808594 11.332031 L 19.742188 13.109375 C 19.742188 13.109375 18.835938 12.507812 17.8125 12.507812 C 16.789062 12.507812 16.417969 12.992188 16.417969 13.511719 C 16.417969 14.855469 20.160156 14.71875 20.160156 17.417969 C 20.160156 21.578125 14.457031 19.734375 14.457031 19.734375 Z M 14.457031 19.734375 "/>
</g>
</svg>
