<svg width="24" height="24" viewBox="0 0 24 24" fill="none" xmlns="http://www.w3.org/2000/svg">
    <path d="M20.3179 4.48761C18.7931 3.79179 17.1483 3.28792 15.4315 3C15.3955 3 15.3715 3.012 15.3474 3.03599C15.1313 3.40789 14.9032 3.88777 14.7351 4.25967C12.8862 3.98374 11.0493 3.98374 9.24847 4.25967C9.09239 3.87577 8.85227 3.40789 8.63617 3.03599C8.62416 3.012 8.58815 3 8.56413 3C6.8473 3.28792 5.2025 3.80379 3.67775 4.48761C3.66575 4.48761 3.65374 4.49961 3.64173 4.5116C0.532218 9.08241 -0.320198 13.5452 0.100007 17.9481C0.100007 17.9721 0.112013 17.9961 0.136025 18.0081C2.17702 19.4957 4.16999 20.3954 6.11494 20.9953C6.15096 21.0073 6.17497 20.9953 6.19898 20.9713C6.6552 20.3475 7.07541 19.6996 7.42358 19.0038C7.44759 18.9678 7.42358 18.9198 7.38756 18.8958C6.73924 18.6559 6.11494 18.356 5.51465 18.0201C5.46662 17.9961 5.46662 17.9241 5.50264 17.9001C5.6227 17.8041 5.75476 17.7082 5.87482 17.6122C5.89883 17.6002 5.92285 17.5882 5.94686 17.6002C9.87277 19.3637 14.1349 19.3637 18.0127 17.6002C18.0368 17.5882 18.0728 17.5882 18.0968 17.6122C18.2168 17.7082 18.3369 17.8041 18.469 17.9001C18.517 17.9361 18.505 17.9961 18.457 18.0201C17.8567 18.368 17.2324 18.6559 16.584 18.8958C16.536 18.9078 16.524 18.9558 16.548 19.0038C16.9082 19.6876 17.3164 20.3475 17.7726 20.9593C17.7966 20.9833 17.8206 20.9953 17.8567 20.9833C19.8136 20.3835 21.8066 19.4837 23.8596 18.0081C23.8716 17.9961 23.8836 17.9721 23.8956 17.9481C24.3999 12.8494 23.0552 8.43458 20.3419 4.5116C20.3419 4.5116 20.3299 4.49961 20.3179 4.48761ZM8.01186 15.2728C6.82328 15.2728 5.85081 14.2051 5.85081 12.8974C5.85081 11.5898 6.81128 10.522 8.01186 10.522C9.22446 10.522 10.1849 11.6017 10.1729 12.8974C10.1729 14.2051 9.21245 15.2728 8.01186 15.2728ZM15.9958 15.2728C14.8072 15.2728 13.8347 14.2051 13.8347 12.8974C13.8347 11.5898 14.7952 10.522 15.9958 10.522C17.2083 10.522 18.1688 11.6017 18.1568 12.8974C18.1568 14.2051 17.2083 15.2728 15.9958 15.2728Z" fill="white"/>
</svg>